<svg xmlns="http://www.w3.org/2000/svg" version="1.1" viewBox="1218.98 168 2766.29 2824.05">
<path d="M0 0 C1.21776627 0.45758194 2.43553253 0.91516388 3.69020081 1.38661194 C5.01998298 1.89445068 6.34972934 2.40238322 7.67944336 2.91040039 C9.09084791 3.44345274 10.5025116 3.97581937 11.91441345 4.5075531 C14.94511857 5.65036184 17.97415656 6.79744463 21.00195312 7.94793701 C25.83116047 9.78271952 30.66404452 11.60766551 35.49780273 13.43041992 C36.3149645 13.73858517 37.13212627 14.04675041 37.97405052 14.364254 C39.63970639 14.99238631 41.30537302 15.62049005 42.97105026 16.24856567 C45.50964879 17.20614149 48.04790285 18.16462562 50.58609009 19.12329102 C66.87480954 25.27343445 83.19520512 31.33696021 99.52173615 37.38586044 C106.04906538 39.80463865 112.57529541 42.22638157 119.10131836 44.64868164 C120.15527424 45.03985955 120.15527424 45.03985955 121.23052216 45.43894005 C138.29296572 51.77280237 155.33269933 58.16677122 172.37084961 64.56567383 C185.64091007 69.54897406 198.91833489 74.51152163 212.20678711 79.44555664 C225.11800539 84.23967231 238.01976376 89.05861035 250.91381836 93.89868164 C251.63648769 94.16994307 252.35915703 94.44120449 253.10372543 94.72068596 C256.86574109 96.13284359 260.62770256 97.54514551 264.38964844 98.95748901 C265.93286016 99.53684801 267.47607305 100.11620388 269.01928711 100.69555664 C269.78372131 100.98254047 270.54815552 101.26952431 271.33575439 101.56520462 C295.27522735 110.5519914 319.23236908 119.48992684 343.20678711 128.38305664 C364.52196514 136.28991296 385.8269486 144.22215654 407.10913086 152.2175293 C422.29886131 157.92325552 437.50139409 163.59421583 452.70678711 169.25805664 C468.81352762 175.25776763 484.9159716 181.26861348 501.00756836 187.30883789 C501.74088253 187.58409113 502.4741967 187.85934437 503.22973251 188.14293861 C506.97774618 189.54982853 510.72570031 190.95687703 514.47363281 192.36398315 C540.9340152 202.29805089 567.41148506 212.18432536 593.91114044 222.01316071 C616.7488339 230.48378783 639.56794613 239.00174194 662.37084961 247.56567383 C675.64091007 252.54897406 688.91833489 257.51152163 702.20678711 262.44555664 C715.11800539 267.23967231 728.01976376 272.05861035 740.91381836 276.89868164 C741.63648769 277.16994307 742.35915703 277.44120449 743.10372543 277.72068596 C746.86574109 279.13284359 750.62770256 280.54514551 754.38964844 281.95748901 C755.93286016 282.53684801 757.47607305 283.11620388 759.01928711 283.69555664 C759.78372131 283.98254047 760.54815552 284.26952431 761.33575439 284.56520462 C785.27522735 293.5519914 809.23236908 302.48992684 833.20678711 311.38305664 C853.54526323 318.9276058 873.87649753 326.48991024 894.1836853 334.1184082 C911.11456323 340.47850079 928.05571092 346.81079599 945.00168228 353.13053894 C947.00723792 353.87856258 949.01270998 354.62680986 951.01815796 355.37512207 C954.74354177 356.76516448 958.4692748 358.1542691 962.19506836 359.54321289 C963.31756989 359.96206253 964.44007141 360.38091217 965.59658813 360.81245422 C966.62464569 361.19548203 967.65270325 361.57850983 968.71191406 361.97314453 C969.60860306 362.30745987 970.50529205 362.64177521 971.42915344 362.98622131 C973.1779536 363.62683607 974.93991973 364.23160085 976.70678711 364.82055664 C976.70678711 365.48055664 976.70678711 366.14055664 976.70678711 366.82055664 C962.74433811 372.51871342 948.66936644 377.84867256 934.50534058 383.02349854 C928.22188206 385.32021208 921.94269321 387.62853607 915.66381836 389.93774414 C914.68263377 390.298501 914.68263377 390.298501 913.68162727 390.66654587 C898.64552301 396.19652489 883.64209747 401.81269756 868.64428711 407.44555664 C867.31345947 407.94526014 865.98262857 408.44495492 864.65179443 408.94464111 C857.82477214 411.50816545 850.99828864 414.07312182 844.17211914 416.63891602 C829.47707826 422.16242204 814.78003501 427.68059066 800.08178711 433.19555664 C798.96200029 433.61576017 798.96200029 433.61576017 797.81959152 434.04445267 C772.0778543 443.70380587 746.31157999 453.29596237 720.53374386 462.85850906 C701.44309934 469.94062367 682.36567195 477.05653303 663.30444336 484.2175293 C648.11471291 489.92325552 632.91218013 495.59421583 617.70678711 501.25805664 C601.6000466 507.25776763 585.49760274 513.2686138 569.40600586 519.30883789 C568.67252552 519.58415344 567.93904518 519.85946899 567.18333817 520.14312744 C563.43475987 521.55022894 559.68624113 522.95748903 555.93774414 524.36480713 C530.0451718 534.0857038 504.13733788 543.7639016 478.20678711 553.38305664 C458.02513573 560.86968054 437.84989905 568.37207327 417.69946289 575.94244385 C405.60664869 580.48558761 393.50977978 585.01763316 381.40600586 589.53149414 C380.73576889 589.78144764 380.06553192 590.03140114 379.37498474 590.28892899 C373.77502954 592.37723475 368.17489425 594.46505746 362.5747757 596.55292511 C345.66903216 602.85604047 328.76651391 609.16754316 311.87475586 615.50805664 C311.13540424 615.78557392 310.39605263 616.0630912 309.63429642 616.3490181 C305.88904185 617.75486502 302.14384928 619.16087707 298.39868164 620.56695557 C271.20135496 630.7777941 243.98426485 640.93360001 216.74700928 651.03744507 C196.91851083 658.39301664 177.10230599 665.7797915 157.30444336 673.2175293 C142.11471291 678.92325552 126.91218129 684.59421888 111.70678711 690.25805664 C95.00237792 696.48038509 78.30327329 702.71655397 61.61303711 708.97680664 C60.80505676 709.27986284 59.99707642 709.58291904 59.16461182 709.89515877 C51.95527248 712.59939758 44.74620318 715.3043553 37.5378418 718.01119995 C36.78101105 718.29537435 36.0241803 718.57954874 35.24441528 718.87233448 C33.74521541 719.43536228 32.24608919 719.99858625 30.74703979 720.56201458 C27.18290818 721.90112184 23.61738394 723.23620089 20.0480957 724.56150818 C14.2495357 726.7173605 8.46890522 728.89124115 2.75366211 731.26245117 C1.88737183 731.61219498 1.02108154 731.96193878 0.12854004 732.32228088 C-1.38016073 732.93505816 -2.8801827 733.57009658 -4.36633301 734.23570251 C-10.31788209 736.61482072 -14.48346358 735.04915813 -20.29321289 732.82055664 C-21.2390625 732.48027939 -22.18491211 732.14000214 -23.15942383 731.78941345 C-26.38726864 730.61886829 -29.59832219 729.40889555 -32.80883789 728.19165039 C-34.67665799 727.48853803 -36.54447925 726.78542873 -38.41234207 726.08242989 C-40.40832358 725.33055341 -42.40370481 724.57710387 -44.39892578 723.82321167 C-50.81739917 721.39829212 -57.23986055 718.98396743 -63.66217041 716.56923103 C-65.16290503 716.00493645 -66.66359636 715.44052675 -68.16424561 714.87600517 C-84.93760283 708.56651602 -101.73614846 702.32544755 -118.53870392 696.09421539 C-125.22031879 693.61611891 -131.90132052 691.13636936 -138.58227539 688.65649414 C-139.28560879 688.39543758 -139.98894218 688.13438103 -140.71358871 687.86541367 C-151.87215502 683.72333 -163.02541751 679.56740285 -174.16821289 675.38305664 C-174.90062195 675.10804321 -175.63303101 674.83302979 -176.38763428 674.54968262 C-180.38964146 673.04663737 -184.39128728 671.54263195 -188.39282227 670.03833008 C-201.7329177 665.02370771 -215.07514991 660.01477676 -228.41821289 655.00805664 C-229.18614922 654.71988319 -229.95408554 654.43170975 -230.74529266 654.13480377 C-256.22619534 644.57340538 -281.72893992 635.07199714 -307.24557495 625.60641479 C-327.07654456 618.2499253 -346.89522625 610.86224888 -366.69555664 603.42358398 C-381.88528709 597.71785776 -397.08781987 592.04689745 -412.29321289 586.38305664 C-428.3999534 580.38334565 -444.50239726 574.37249948 -460.59399414 568.33227539 C-461.32747448 568.05695984 -462.06095482 567.78164429 -462.81666183 567.49798584 C-466.56524013 566.09088434 -470.31375887 564.68362425 -474.06225586 563.27630615 C-475.57674055 562.70772034 -477.09122622 562.13913718 -478.60571289 561.57055664 C-479.35591705 561.28890907 -480.10612122 561.00726151 -480.87905884 560.71707916 C-504.49954974 551.84985191 -528.13830404 543.03304199 -551.79321289 534.25805664 C-572.32510353 526.64150882 -592.85150889 519.01142853 -613.35571289 511.32055664 C-614.3648877 510.94220673 -615.3740625 510.56385681 -616.41381836 510.17404175 C-619.19812436 509.12989808 -621.98208961 508.084853 -624.76586914 507.03930664 C-625.56746964 506.73855728 -626.36907013 506.43780792 -627.19496155 506.12794495 C-627.93258224 505.85054977 -628.67020294 505.5731546 -629.43017578 505.28735352 C-630.06065323 505.050448 -630.69113068 504.81354248 -631.3407135 504.56945801 C-633.6674974 503.67699594 -635.97938418 502.74608813 -638.29321289 501.82055664 C-638.29321289 537.79055664 -638.29321289 573.76055664 -638.29321289 610.82055664 C-636.64321289 611.48055664 -634.99321289 612.14055664 -633.29321289 612.82055664 C-623.63172842 618.82911236 -617.19947354 627.4572904 -613.95336914 638.34790039 C-611.29415823 652.33629385 -613.08900766 664.83494226 -620.85180664 676.87133789 C-622.29321289 678.82055664 -622.29321289 678.82055664 -624.84208679 681.38345337 C-628.08179365 685.28601727 -628.00432237 688.84994139 -627.95263672 693.76342773 C-627.96312042 694.64212524 -627.97360413 695.52082275 -627.98440552 696.42614746 C-628.01308971 699.31579181 -628.0068718 702.2042333 -628.00024414 705.09399414 C-628.01336319 707.10325619 -628.02866805 709.11250506 -628.04606628 711.12173462 C-628.08590479 716.39893557 -628.09610603 721.67579141 -628.10009766 726.953125 C-628.1094312 732.34263571 -628.14684619 737.73194384 -628.18188477 743.12133789 C-628.24644903 753.68773469 -628.27969869 764.25397985 -628.29321289 774.82055664 C-630.27321289 774.82055664 -632.25321289 774.82055664 -634.29321289 774.82055664 C-634.22190428 775.43848203 -634.15059568 776.05640743 -634.0771262 776.69305784 C-631.76150533 796.87486507 -629.76274282 817.08144193 -627.81692541 837.3015641 C-627.36643814 841.97831395 -626.91367481 846.65484361 -626.46124268 851.33140564 C-625.57961503 860.44827309 -624.70012 869.565345 -623.82151071 878.68250378 C-623.10752676 886.09126587 -622.39290482 893.49996614 -621.67784691 900.90862465 C-619.64630184 921.9580188 -617.61635985 943.00756663 -615.5885546 964.05732139 C-615.47973197 965.18696002 -615.37090934 966.31659865 -615.25878906 967.48046875 C-615.14983282 968.6114978 -615.04087658 969.74252685 -614.92861863 970.9078295 C-613.15689825 989.29828108 -611.38131463 1007.68835738 -609.60400627 1026.07826968 C-607.77492483 1045.00433288 -605.94868294 1063.93066819 -604.12542123 1082.85729295 C-603.10333328 1093.46661769 -602.08007778 1104.0758268 -601.05376625 1114.68474388 C-600.1817377 1123.69908484 -599.31234619 1132.71367527 -598.44639102 1141.72860178 C-598.00476566 1146.32529939 -597.56190901 1150.92186955 -597.11572838 1155.51812744 C-596.70731691 1159.7256358 -596.3024383 1163.93346869 -595.90035965 1168.14158682 C-595.75440803 1169.6625749 -595.60716944 1171.18344015 -595.45850507 1172.70416548 C-593.06528588 1197.20845344 -593.06528588 1197.20845344 -600.21118164 1206.24633789 C-614.37539564 1221.16263405 -634.54924618 1226.14917037 -654.50805664 1226.94946289 C-674.89616389 1227.2934692 -698.39434444 1223.40478392 -713.85571289 1208.88305664 C-718.16302446 1204.51818634 -721.44749581 1198.91795609 -721.73565334 1192.70925456 C-721.72509445 1191.2726406 -721.69074666 1189.83604759 -721.63532925 1188.40046406 C-721.61956647 1187.62018644 -721.60380368 1186.83990883 -721.58756324 1186.03598644 C-721.37114844 1177.83904418 -720.64325249 1169.696356 -719.8193512 1161.54203796 C-719.65845778 1159.88434263 -719.49832936 1158.22657291 -719.33888763 1156.56873733 C-718.90393854 1152.06904395 -718.45828988 1147.57046845 -718.01069534 1143.07201779 C-717.52784377 1138.19960146 -717.05516648 1133.32619629 -716.58117676 1128.45291138 C-715.65354952 1118.93187655 -714.71672832 1109.41176825 -713.77677602 1099.89194318 C-712.68207398 1088.80092115 -711.59687137 1077.70897573 -710.51209902 1066.61697886 C-708.57693992 1046.83266432 -706.63364955 1027.04915715 -704.68554688 1007.26611328 C-702.79538283 988.07132766 -700.91032917 968.8760498 -699.03125 949.68017578 C-698.91532258 948.49592058 -698.79939515 947.31166539 -698.67995477 946.09152367 C-698.44641743 943.70578144 -698.2128812 941.3200391 -697.97934609 938.93429666 C-697.80654352 937.16898691 -697.80654352 937.16898691 -697.63024998 935.36801434 C-697.5153403 934.19409849 -697.40043063 933.02018265 -697.28203884 931.8106936 C-695.48988767 913.50379071 -693.69376036 895.19727766 -691.89694722 876.89083182 C-691.35430473 871.36207004 -690.81185619 865.83328937 -690.26984143 860.30446601 C-689.13098858 848.68776716 -687.99081741 837.07120114 -686.84609241 825.45507928 C-686.37284286 820.65254835 -685.90037125 815.84994446 -685.43005943 811.04712486 C-684.99981527 806.65384285 -684.56723548 802.26079741 -684.13275599 797.8679323 C-683.97574 796.2762842 -683.81957546 794.68455183 -683.66433425 793.09272965 C-683.45365795 790.93386544 -683.2398947 788.77532856 -683.02533817 786.61684704 C-682.90724515 785.41643565 -682.78915213 784.21602427 -682.66748053 782.97923678 C-682.33979486 780.2136912 -681.88832404 777.53935663 -681.29321289 774.82055664 C-683.60321289 774.82055664 -685.91321289 774.82055664 -688.29321289 774.82055664 C-688.29019669 773.6982666 -688.28718048 772.57597656 -688.28407288 771.41967773 C-688.26016505 760.82631945 -688.27305719 750.23355491 -688.32167912 739.64027405 C-688.34550009 734.19447901 -688.35650115 728.74929525 -688.33789062 723.3034668 C-688.32039595 718.04461367 -688.33698647 712.78685703 -688.37689018 707.52813721 C-688.38616118 705.52518605 -688.38329454 703.52213958 -688.36790657 701.51922607 C-687.74953032 689.29843515 -687.74953032 689.29843515 -692.74291992 678.69555664 C-693.90673071 677.71348937 -695.08741179 676.75058642 -696.29321289 675.82055664 C-703.20124056 664.94476022 -705.10397202 652.97723633 -702.60571289 640.34399414 C-699.26363915 628.45178175 -692.60733839 618.90864394 -682.41821289 611.82055664 C-680.29321289 610.82055664 -680.29321289 610.82055664 -678.29321289 610.82055664 C-678.29321289 569.57055664 -678.29321289 528.32055664 -678.29321289 485.82055664 C-680.27321289 485.49055664 -682.25321289 485.16055664 -684.29321289 484.82055664 C-686.12484335 484.23527288 -687.9403837 483.59776281 -689.73852539 482.91650391 C-690.79620117 482.51898422 -691.85387695 482.12146454 -692.94360352 481.7118988 C-694.66353516 481.05605553 -694.66353516 481.05605553 -696.41821289 480.38696289 C-698.29419495 479.67970311 -700.17017819 478.97244645 -702.04620361 478.2653017 C-704.06323018 477.50385917 -706.07923368 476.73976387 -708.0949707 475.97491455 C-714.57090164 473.51802188 -721.0533209 471.07832442 -727.53491211 468.63641357 C-729.81519786 467.77711562 -732.09523342 466.91715631 -734.37524414 466.05712891 C-750.2493283 460.07181719 -766.15399403 454.16951934 -782.06124115 448.27304077 C-788.72518616 445.80244106 -795.38814669 443.32918659 -802.05102539 440.85571289 C-802.76194462 440.59180882 -803.47286385 440.32790474 -804.20532608 440.05600357 C-822.67369555 433.19947584 -841.11833114 426.28010477 -859.55932617 419.3503418 C-871.2410318 414.96109117 -882.92501504 410.57790716 -894.60919762 406.19525528 C-899.25025598 404.45437558 -903.89103118 402.71274366 -908.53160667 400.97057724 C-923.61473756 395.30855444 -938.70227724 389.65922757 -953.81022453 384.06370926 C-955.92483539 383.2803458 -958.03919374 382.49630498 -960.15345764 381.71200562 C-961.52059923 381.20489466 -962.88774095 380.69778406 -964.25488281 380.19067383 C-964.91850736 379.94449373 -965.5821319 379.69831364 -966.26586628 379.44467354 C-969.5244209 378.23637883 -972.78381866 377.03045439 -976.04507446 375.82946777 C-979.60609867 374.51736671 -983.16470419 373.19889711 -986.72290039 371.87915039 C-988.30017662 371.30145149 -988.30017662 371.30145149 -989.90931702 370.71208191 C-990.86084152 370.3578566 -991.81236603 370.00363129 -992.79272461 369.63867188 C-993.6192453 369.33372299 -994.44576599 369.02877411 -995.29733276 368.71458435 C-997.29321289 367.82055664 -997.29321289 367.82055664 -999.29321289 365.82055664 C-990.76379033 362.19792732 -982.16258166 358.81832546 -973.48852539 355.55883789 C-972.15135887 355.05478011 -970.8142481 354.55057442 -969.47718811 354.04623413 C-965.87703263 352.68901747 -962.27578889 351.3347117 -958.67425156 349.98116684 C-956.39723124 349.12516903 -954.12052178 348.26834943 -951.84390259 347.4112854 C-926.54784341 337.88901904 -901.21928105 328.45543369 -875.87617588 319.05920506 C-872.25209535 317.71552688 -868.62808429 316.3716615 -865.00415039 315.02758789 C-864.29692274 314.7652857 -863.58969509 314.50298351 -862.8610363 314.23273277 C-848.09603594 308.75549266 -833.34842028 303.23252625 -818.60571289 297.69555664 C-803.01028622 291.83843596 -787.41045269 285.99427621 -771.79321289 280.19555664 C-758.88199461 275.40144097 -745.98023624 270.58250293 -733.08618164 265.74243164 C-732.36351231 265.47117022 -731.64084297 265.19990879 -730.89627457 264.92042732 C-727.13425891 263.50826969 -723.37229744 262.09596777 -719.61035156 260.68362427 C-718.06713984 260.10426527 -716.52392695 259.5249094 -714.98071289 258.94555664 C-714.21627869 258.65857281 -713.45184448 258.37158897 -712.66424561 258.07590866 C-688.72477294 249.08912199 -664.76765384 240.15112419 -640.79321289 231.25805664 C-619.2902379 223.28167685 -597.79805239 215.27834083 -576.32836914 207.21264648 C-562.65913316 202.07805775 -548.97860845 196.97440472 -535.29321289 191.88305664 C-520.69592083 186.452295 -506.10503653 181.00488177 -491.52368164 175.53149414 C-490.79607258 175.25838032 -490.06846352 174.98526649 -489.31880569 174.7038765 C-485.5669037 173.29552036 -481.81505872 171.88701238 -478.06323242 170.47845459 C-451.99096851 160.69018607 -425.90376933 150.94374063 -399.79321289 141.25805664 C-378.47805514 133.35114524 -357.17305171 125.41895685 -335.89086914 117.42358398 C-320.70113869 111.71785776 -305.49860591 106.04689745 -290.29321289 100.38305664 C-274.18647238 94.38334565 -258.08402852 88.37249948 -241.99243164 82.33227539 C-241.2589513 82.05695984 -240.52547096 81.78164429 -239.76976395 81.49798584 C-236.02118565 80.09088434 -232.27266691 78.68362425 -228.52416992 77.27630615 C-202.6315968 67.55540919 -176.72370237 57.87737815 -150.79321289 48.25805664 C-132.27997542 41.39005229 -113.7678812 34.51975477 -95.2807312 27.58172607 C-92.46200219 26.52448107 -89.64246174 25.46942622 -86.82275391 24.41479492 C-77.87557158 21.06486432 -68.93812174 17.6914479 -60.01957703 14.26594448 C-54.83412211 12.27438894 -49.64488783 10.29290141 -44.45330811 8.31736851 C-41.29902746 7.11620257 -38.14822631 5.90730937 -35.0010376 4.68759155 C-31.51913339 3.33854336 -28.03026576 2.00924376 -24.53930664 0.68383789 C-22.98497673 0.0728978 -22.98497673 0.0728978 -21.39924622 -0.55038452 C-20.43153793 -0.91354767 -19.46382965 -1.27671082 -18.46679688 -1.65087891 C-17.21502907 -2.13236641 -17.21502907 -2.13236641 -15.93797302 -2.62358093 C-10.33140257 -3.80194181 -5.22326451 -1.98037648 0 0 Z " fill="#142349" transform="translate(2626.293212890625,1091.179443359375)"/>
<path d="M0 0 C3.09015196 1.15835309 5.76394788 2.35287639 8.43359375 4.29296875 C9.07111572 4.7506665 9.7086377 5.20836426 10.36547852 5.67993164 C11.39112915 6.42617798 11.39112915 6.42617798 12.4375 7.1875 C19.25117319 12.07222239 26.12724642 16.85195427 33.0625 21.5625 C34.94141125 22.8398364 36.82031757 24.11718004 38.69921875 25.39453125 C39.59946777 26.00635254 40.4997168 26.61817383 41.42724609 27.24853516 C45.08408797 29.73801927 48.73105524 32.24168842 52.375 34.75 C53.01187744 35.18836182 53.64875488 35.62672363 54.30493164 36.07836914 C55.56892917 36.94861209 56.83284606 37.81897217 58.09667969 38.68945312 C61.39646956 40.96155061 64.69836901 43.23057913 68 45.5 C69.33334282 46.41665286 70.66667617 47.33331951 72 48.25 C72.66 48.70375 73.32 49.1575 74 49.625 C81.33333333 54.66666667 88.66666667 59.70833333 96 64.75 C96.98915405 65.43002075 96.98915405 65.43002075 97.99829102 66.1237793 C99.33737791 67.04443216 100.67640747 67.96516841 102.01538086 68.88598633 C105.26023002 71.11733692 108.50591802 73.34743948 111.75390625 75.57421875 C119.62898236 80.97618932 127.47710703 86.41561291 135.3125 91.875 C142.35411918 96.78105087 149.40984027 101.66435683 156.5 106.5 C164.58710098 112.01557879 172.62649959 117.59790082 180.6574707 123.19482422 C186.15427627 127.02443327 191.66093082 130.83848634 197.1875 134.625 C203.84865752 139.19140552 210.4680245 143.81596714 217.08007812 148.453125 C223.60413833 153.02740904 230.14351684 157.57927464 236.6875 162.125 C244.0527243 167.24309303 251.40165654 172.38265835 258.72167969 177.56518555 C263.2637548 180.77968567 267.82062674 183.97221751 272.38427734 187.15600586 C280.40545565 192.75272972 288.36762439 198.41928804 296.27661133 204.17333984 C301.65863746 208.07236351 307.12236066 211.83615905 312.625 215.5625 C319.20864636 220.02294875 325.61335136 224.65370704 331.93530273 229.47631836 C337.07150094 233.36830855 342.34848127 237.01759773 347.6875 240.625 C354.21960633 245.04064146 360.50853769 249.61976089 366.71484375 254.484375 C371.14999544 257.92349109 375.76174672 261.11223372 380.35644531 264.33276367 C394.2645207 274.08296205 407.94906604 284.1401624 421.60888672 294.23388672 C424.77955696 296.57579283 427.95298249 298.91394708 431.12670898 301.25170898 C432.71110177 302.41885606 434.29524829 303.5863375 435.87915039 304.75415039 C439.80881327 307.65128356 443.74121164 310.54454409 447.6796875 313.4296875 C456.91643791 320.20330447 466.06764284 327.07697687 475.16357422 334.03857422 C480.89860299 338.42045335 486.67746771 342.73521577 492.5 347 C500.19448249 352.63719029 507.79749156 358.38641797 515.375 364.1796875 C520.56390748 368.14631899 525.76784445 372.09061049 531 376 C539.04979932 382.0186965 547.04740826 388.10508203 555.03125 394.2109375 C558.05966849 396.52617499 561.09799744 398.82589814 564.15625 401.1015625 C564.76251221 401.55644043 565.36877441 402.01131836 565.9934082 402.47998047 C567.55827017 403.65311953 569.12850982 404.81907603 570.69921875 405.984375 C572.96131277 407.96610762 573.77830633 409.32599926 575 412 C573.96520508 412.47719482 572.93041016 412.95438965 571.86425781 413.44604492 C541.3775537 427.50609064 510.90956762 441.60113986 480.54266357 455.91844177 C475.48833487 458.30070915 470.43051073 460.675436 465.37109375 463.046875 C448.2781719 471.06224592 431.24957648 479.1989292 414.26780701 487.44702148 C408.64767815 490.17491669 403.01344633 492.87272209 397.375 495.5625 C370.8455601 508.22794198 344.41286521 521.0935933 318 534 C316.4884433 534.73854218 316.4884433 534.73854218 314.9463501 535.49200439 C288.56151963 548.38591871 262.19964191 561.32122644 235.97192383 574.5324707 C227.56254781 578.76225664 219.12346813 582.90985356 210.6171875 586.94140625 C200.32398879 591.82911596 190.12488295 596.89663361 179.9375 602 C179.13376827 602.40258593 178.33003654 602.80517185 177.50194931 603.21995735 C171.66653968 606.14379692 165.83307421 609.07150468 160 612 C153.35545001 615.33589679 146.71012423 618.67023287 140.0625 622 C139.26158936 622.40121567 138.46067871 622.80243134 137.63549805 623.21580505 C127.37831303 628.35072545 117.08974589 633.40543321 106.72338867 638.31726074 C97.95949652 642.47348872 89.29153509 646.81355334 80.62902832 651.17633057 C67.67235969 657.69978492 54.70445418 664.18177791 41.58984375 670.3828125 C35.34936819 673.33733204 29.16693756 676.3950862 23 679.5 C11.74382689 685.16389569 0.38651313 690.60389914 -11 696 C-12.73047248 696.82290883 -14.46094137 697.64582519 -16.19140625 698.46875 C-17.75243734 699.20868538 -19.31362546 699.94828962 -20.875 700.6875 C-21.94584839 701.19639771 -21.94584839 701.19639771 -23.03833008 701.71557617 C-27.88387577 704 -27.88387577 704 -29 704 C-30.04953304 694.15181927 -30.14635814 684.36130501 -30.1328125 674.47265625 C-30.13382921 672.77425617 -30.13516928 671.07585626 -30.1368103 669.37745667 C-30.13948877 664.86950629 -30.13507791 660.36159082 -30.12857056 655.85364532 C-30.12498176 653.04824216 -30.12337787 650.24284414 -30.12231445 647.43743896 C-30.11180431 625.14856007 -29.98665583 602.87647641 -29.3581543 580.59521484 C-28.73858763 558.06941362 -28.90927965 535.53217878 -29 513 C-35.09710716 512.44522686 -41.19452597 511.89405071 -47.29223633 511.34594727 C-49.35872794 511.1597176 -51.42513719 510.97257125 -53.49145508 510.78442383 C-147.20018234 502.25717978 -241.41062072 508.89279185 -458.5668335 558.23431396 C-461.01546222 559.00486576 -463.46579936 559.76977 -465.91650391 560.53369141 C-515.78773813 576.11527525 -564.58728257 595.04621579 -612 617 C-612.66753296 617.30873047 -613.33506592 617.61746094 -614.02282715 617.93554688 C-640.1533594 630.02972023 -666.01662252 642.52839503 -691.21972656 656.47314453 C-694.11322116 658.06217818 -697.01914046 659.62602961 -699.9296875 661.18359375 C-713.50136336 668.45014539 -726.81550321 676.0542345 -740 684 C-741.10956055 684.66580078 -742.21912109 685.33160156 -743.36230469 686.01757812 C-758.43161257 695.06092004 -773.35153082 704.28489489 -788 714 C-788.92699707 714.61166016 -789.85399414 715.22332031 -790.80908203 715.85351562 C-818.42962431 734.08096684 -845.43993555 753.0633083 -871.68359375 773.22265625 C-873.67066537 774.74730648 -875.66184082 776.26622262 -877.65625 777.78125 C-884.98413665 783.36785665 -892.14635857 789.13872675 -899.28125 794.96875 C-902.23111391 797.37849799 -905.20180078 799.75970581 -908.1875 802.125 C-912.57055112 805.61820349 -916.84569867 809.22966924 -921.11181641 812.86376953 C-924.55595484 815.79376682 -928.040656 818.66324093 -931.5625 821.5 C-936.63319551 825.6245599 -941.43192479 829.99616599 -946.22265625 834.4375 C-949.11364944 837.104858 -952.05801642 839.69823603 -955.02734375 842.27734375 C-963.50490222 849.68051857 -971.75591364 857.33914477 -980 865 C-980.61178101 865.56821472 -981.22356201 866.13642944 -981.85388184 866.72186279 C-992.53529085 876.66103718 -1002.97612399 886.81768019 -1013.27880859 897.1484375 C-1015.65476675 899.52983489 -1018.03613331 901.90573243 -1020.41796875 904.28125 C-1021.95865462 905.82259559 -1023.49903084 907.36425076 -1025.0390625 908.90625 C-1025.73705963 909.6022229 -1026.43505676 910.2981958 -1027.15420532 911.01525879 C-1031.10806873 914.98785408 -1034.88323767 919.06229161 -1038.53500366 923.31481934 C-1040.2677758 925.30802166 -1042.10040177 927.16590516 -1044 929 C-1047.14920881 932.10713922 -1050.07976967 935.32490304 -1052.9609375 938.6796875 C-1055.03564374 941.04056012 -1057.16511178 943.33969449 -1059.31005859 945.63647461 C-1064.35630754 951.04092064 -1069.15722358 956.55141566 -1073.7890625 962.3203125 C-1076.1093495 965.13253315 -1078.53071134 967.81797263 -1081 970.5 C-1085.41511354 975.30786903 -1089.56654482 980.27409325 -1093.66308594 985.35400391 C-1095.7772873 987.95698886 -1097.92071329 990.53567641 -1100.05957031 993.1184082 C-1106.33522645 1000.70303996 -1112.50444387 1008.35750615 -1118.54443359 1016.13085938 C-1120.1241809 1018.15946477 -1121.712145 1020.18147426 -1123.30078125 1022.203125 C-1135.48649588 1037.7423921 -1147.15221856 1053.63581912 -1158.46826172 1069.81787109 C-1160.03360712 1072.04787703 -1161.61131271 1074.26870558 -1163.19140625 1076.48828125 C-1182.35039751 1103.49296092 -1200.14498793 1131.50824585 -1217 1160 C-1217.80775879 1161.3622168 -1217.80775879 1161.3622168 -1218.63183594 1162.75195312 C-1253.33547895 1221.3814586 -1283.56159722 1282.52315949 -1308.7199707 1345.83911133 C-1310.1003497 1349.24780233 -1311.54122711 1352.62421071 -1313 1356 C-1313.33 1356 -1313.66 1356 -1314 1356 C-1314.08361442 1349.81754195 -1313.81025229 1343.82041886 -1313.15234375 1337.67578125 C-1313.06063904 1336.79313599 -1312.96893433 1335.91049072 -1312.87445068 1335.00109863 C-1312.56953475 1332.10405097 -1312.25499676 1329.20819487 -1311.9375 1326.3125 C-1311.82773834 1325.30569183 -1311.71797668 1324.29888367 -1311.60488892 1323.26156616 C-1301.51705857 1231.55819164 -1280.70488688 1141.01956579 -1248.74029541 1047.15771484 C-1248.00730753 1045.02129901 -1247.27758648 1042.88378912 -1246.54833984 1040.74609375 C-1234.62542549 1005.86506899 -1220.86559411 971.72498814 -1206 938 C-1205.70194458 937.32138916 -1205.40388916 936.64277832 -1205.09680176 935.94360352 C-1196.23139818 915.76883989 -1186.63678403 895.97404881 -1176.8125 876.25 C-1176.27313812 875.16333038 -1175.73377625 874.07666077 -1175.17807007 872.95706177 C-1168.4593742 859.44356975 -1161.42728788 846.17431521 -1153.90600586 833.08959961 C-1151.10158131 828.20901417 -1148.41348413 823.27105359 -1145.75 818.3125 C-1139.66971047 807.13537852 -1133.01629096 796.30147619 -1126.35227966 785.46595764 C-1124.38843456 782.27264265 -1122.43806984 779.07199431 -1120.50512695 775.85986328 C-1113.94133956 764.98081237 -1107.04680163 754.3523739 -1099.97631836 743.79638672 C-1098.19532537 741.13668625 -1096.42051296 738.47294319 -1094.64648438 735.80859375 C-1069.14051196 697.58006817 -1041.70933999 660.56624019 -1011.8828125 625.58398438 C-1009.03615846 622.24207912 -1006.25419148 618.85582276 -1003.5 615.4375 C-999.37192681 610.36248529 -994.99654409 605.55984584 -990.55078125 600.765625 C-988.51598117 598.55944053 -986.52353762 596.33367739 -984.5625 594.0625 C-980.13331678 588.95839362 -975.51936868 584.0213348 -970.91552734 579.07519531 C-969.50499509 577.54708874 -968.10593338 576.00837455 -966.71337891 574.46386719 C-957.39803095 564.17632942 -947.55744202 554.40427378 -937.73535156 544.60498047 C-935.23541788 542.11078246 -932.74005719 539.61206479 -930.24596786 537.11202431 C-928.29507161 535.15748991 -926.34176982 533.20537342 -924.38776398 531.25394821 C-923.02618995 529.89334755 -921.66659699 528.5307653 -920.30706787 527.16812134 C-915.88925674 522.7668573 -911.40990278 518.50935277 -906.68023682 514.44442749 C-904.73703731 512.77394226 -902.85998842 511.04367207 -901 509.28125 C-900.34 508.65863281 -899.68 508.03601563 -899 507.39453125 C-898.34 506.76933594 -897.68 506.14414062 -897 505.5 C-891.76747344 500.54340746 -886.45774394 495.70787802 -881 491 C-880.14269287 490.25943359 -880.14269287 490.25943359 -879.26806641 489.50390625 C-875.78730998 486.5048479 -872.29330627 483.52121906 -868.79931641 480.53759766 C-867.6391774 479.54620614 -866.47992905 478.55377096 -865.32177734 477.56005859 C-858.80906543 471.97241439 -852.21028653 466.53254579 -845.43701172 461.26318359 C-841.62739694 458.29526442 -837.86872121 455.27321617 -834.13476562 452.21069336 C-826.28819471 445.77578079 -818.28825949 439.59632335 -810.12451172 433.56982422 C-807.9030736 431.92838006 -805.68768036 430.27899329 -803.47265625 428.62890625 C-761.03299538 397.08902481 -716.37361075 368.40473909 -670 343 C-669.02675781 342.46455566 -668.05351563 341.92911133 -667.05078125 341.37744141 C-596.80118267 302.77064432 -523.37775231 271.35683396 -447.11676025 246.68560791 C-445.0826155 246.02675874 -443.04971592 245.36420097 -441.01708984 244.70068359 C-355.41065883 216.81696364 -266.4096765 199.03870405 -14 178 C-13.91564697 176.76685059 -13.91564697 176.76685059 -13.82958984 175.50878906 C-13.38400308 169.12055719 -12.90234914 162.73945484 -12.3515625 156.359375 C-10.78394024 138.01568051 -9.6306114 119.67923822 -8.74261475 101.2897644 C-7.78924889 81.56097106 -6.6753182 61.86940288 -5 42.1875 C-4.92218292 41.25237579 -4.84436584 40.31725159 -4.76419067 39.35379028 C-3.65454549 26.15706972 -1.99302044 13.09165304 0 0 Z " fill="#807F95" transform="translate(2607,168)"/>
<path d="M0 0 C6.18732755 5.11644393 11.83734871 10.68832048 17.5 16.375 C18.41136719 17.2825 19.32273437 18.19 20.26171875 19.125 C24.77487232 23.64466606 29.15178479 28.21364688 33.31054688 33.06103516 C36.43064223 36.64193072 39.72782857 40.05857833 43 43.5 C48.12949517 48.89481389 53.14257924 54.35846729 58 60 C58.48774902 60.56557617 58.97549805 61.13115234 59.47802734 61.71386719 C60.88406076 63.34847241 62.28646333 64.98611067 63.6875 66.625 C64.73560523 67.85032188 65.78378437 69.07558054 66.83203125 70.30078125 C67.35877441 70.91646973 67.88551758 71.5321582 68.42822266 72.16650391 C69.93157148 73.92017736 71.43946611 75.66980753 72.94921875 77.41796875 C84.14210797 90.39214024 95.03464364 103.60476614 105.54882812 117.13525391 C107.11653958 119.14975257 108.69080809 121.15902058 110.265625 123.16796875 C139.55890066 160.59711238 167.09877311 199.4986422 192 240 C192.64533691 241.04865234 193.29067383 242.09730469 193.95556641 243.17773438 C203.24611435 258.29630182 212.33738685 273.51100178 221 289 C221.58539551 290.04075684 222.17079102 291.08151367 222.77392578 292.15380859 C256.93744347 352.97247573 285.97671325 416.311533 309.31176758 482.06286621 C310.01442217 484.04059337 310.72093018 486.01691652 311.42773438 487.99316406 C343.7657341 578.64435608 363.06157359 673.23322048 376.26074219 865.35180664 C376.24935813 869.58687818 376.25614744 873.82169779 376.26762009 878.05676079 C376.34064065 909.92573471 375.13848117 941.75458244 372.25 973.5 C372.16729858 974.42782288 372.08459717 975.35564575 371.99938965 976.31158447 C365.97536159 1043.41342101 354.3140809 1109.65985221 338 1175 C337.79868469 1175.8076178 337.59736938 1176.6152356 337.38995361 1177.44732666 C327.89811326 1215.4330214 316.44710477 1252.8486429 303.72991943 1289.87341309 C303.00722676 1291.97894516 302.28779816 1294.08557041 301.56884766 1296.19238281 C285.29629809 1343.78199354 266.12363056 1390.34514665 244.94927979 1435.95428467 C243.99089223 1438.0196274 243.03505595 1440.08613638 242.07958984 1442.15283203 C240.12478532 1446.37704557 238.15995836 1450.5965018 236.1875 1454.8125 C235.86459991 1455.50269226 235.54169983 1456.19288452 235.20901489 1456.9039917 C231.25278929 1465.3376828 227.17241103 1473.69856744 222.953125 1482.00390625 C222.53352005 1482.83205338 222.1139151 1483.6602005 221.68159485 1484.51344299 C219.63758799 1488.54377763 217.58007143 1492.56618366 215.4987793 1496.57739258 C214.75792104 1498.02796367 214.01742332 1499.47871897 213.27734375 1500.9296875 C212.92927673 1501.58848404 212.58120972 1502.24728058 212.22259521 1502.92604065 C210.94930747 1505.44458193 209.98108015 1507.41348457 210.07324219 1510.27050781 C211.2544756 1512.47489597 212.45926071 1513.3722225 214.55078125 1514.7421875 C215.30174072 1515.24379395 216.0527002 1515.74540039 216.82641602 1516.26220703 C217.64682373 1516.79442871 218.46723145 1517.32665039 219.3125 1517.875 C221.0582211 1519.03506089 222.80298269 1520.19656675 224.546875 1521.359375 C225.44986328 1521.95814453 226.35285156 1522.55691406 227.28320312 1523.17382812 C230.75581866 1525.5080449 234.16356353 1527.92690064 237.57177734 1530.35375977 C246.65638004 1536.81413935 255.91825136 1542.81632185 265.49902344 1548.51025391 C268.22729354 1550.13539098 270.94611506 1551.77562874 273.6640625 1553.41796875 C282.63175105 1558.82921841 291.61929235 1564.20415238 300.66015625 1569.4921875 C301.30388687 1569.86876495 301.94761749 1570.24534241 302.6108551 1570.6333313 C305.7354937 1572.46009294 308.86205043 1574.28346627 311.99145508 1576.10205078 C319.10031852 1580.24225345 326.09760701 1584.52315023 333 1589 C331.619749 1593.14075301 329.75555852 1593.43559101 325.89453125 1595.37109375 C325.2680217 1595.68917496 324.64151215 1596.00725616 323.99601746 1596.3349762 C322.64506224 1597.01976834 321.29188379 1597.70018824 319.93676758 1598.37670898 C316.3502359 1600.16770774 312.77976095 1601.990264 309.20703125 1603.80859375 C308.49386749 1604.17044769 307.78070374 1604.53230164 307.04592896 1604.90512085 C301.30148597 1607.82614917 295.63577764 1610.87433404 290 1614 C280.58348253 1619.20355878 271.03815448 1624.13409994 261.46618652 1629.04302979 C253.33372162 1633.21609425 245.24887357 1637.44930186 237.25 1641.875 C225.44373949 1648.40031984 213.42492587 1654.50702698 201.41989136 1660.65551758 C200.68449127 1661.03216553 199.94909119 1661.40881348 199.19140625 1661.796875 C198.10510422 1662.35314575 198.10510422 1662.35314575 196.99685669 1662.9206543 C189.39491819 1666.81666832 181.83940147 1670.79815304 174.2890625 1674.79296875 C166.84854215 1678.71638306 159.3811866 1682.58903767 151.921875 1686.4765625 C149.07227512 1687.96231645 146.22348267 1689.44960542 143.375 1690.9375 C88.4368361 1719.63147047 33.30239944 1747.9448208 -22.14697266 1775.63867188 C-27.39670835 1778.26064958 -32.64459181 1780.88631163 -37.89198875 1783.51296616 C-42.04744917 1785.59252177 -46.20387848 1787.67013497 -50.36058426 1789.74720001 C-52.29563094 1790.71439711 -54.23039723 1791.68215548 -56.16483688 1792.6505661 C-68.29491483 1798.72145889 -80.48123422 1804.65959633 -92.73130798 1810.48471069 C-97.91497453 1812.95212435 -103.07582471 1815.46479776 -108.23046875 1817.9921875 C-109.09404873 1818.4155391 -109.95762871 1818.83889071 -110.84737778 1819.27507114 C-112.45164956 1820.0618022 -114.05585446 1820.84866966 -115.66000366 1821.63565063 C-129.73375164 1828.53666582 -143.8421776 1835.33517436 -158.08837891 1841.87329102 C-165.0265267 1845.06081688 -171.87170897 1848.37072077 -178.62890625 1851.92578125 C-181 1853 -181 1853 -184 1853 C-184.12680694 1842.95292779 -183.77865812 1832.95186614 -183.35091209 1822.91611671 C-183.22530154 1819.96044441 -183.10369512 1817.00462822 -182.98298645 1814.04875183 C-182.63913688 1805.64254582 -182.29006286 1797.2365632 -181.93530273 1788.83081055 C-178.20931166 1700.30010786 -176.23172747 1611.71419123 -173.72278506 1500.07875592 C-173.4502582 1487.90818784 -173.17636235 1475.73765122 -172.90136719 1463.56713867 C-172.88181179 1462.70164103 -172.8622564 1461.8361434 -172.84210841 1460.94441856 C-172.62751112 1451.44806864 -172.41258421 1441.95172621 -172.19738197 1432.45538998 C-172.17838174 1431.61690745 -172.1593815 1430.77842492 -172.1398055 1429.91453383 C-171.98610755 1423.13196791 -171.98610755 1423.13196791 -171.91173251 1419.85140382 C-171.69261361 1410.18579498 -171.47447793 1400.52016516 -171.25813232 1390.85449382 C-169.86071629 1328.42423978 -169.86071629 1328.42423978 -169 1301 C-165.32215089 1301.67402367 -162.63321116 1302.55996063 -159.39453125 1304.44921875 C-158.06264771 1305.21625122 -158.06264771 1305.21625122 -156.70385742 1305.9987793 C-155.74970947 1306.55605713 -154.79556152 1307.11333496 -153.8125 1307.6875 C-145.17306793 1312.65591887 -136.47600672 1317.48767742 -127.6875 1322.1875 C-120.44310576 1326.0640441 -113.22268376 1329.97010171 -106.0625 1334 C-78.82647875 1349.24673229 -50.7251305 1362.81135001 -22 1375 C-18.79719839 1371.99488006 -16.36634507 1368.82333403 -13.91015625 1365.1875 C-13.33924004 1364.34578247 -13.33924004 1364.34578247 -12.75679016 1363.48706055 C-11.52054809 1361.66123768 -10.29115651 1359.83093445 -9.0625 1358 C-8.20079443 1356.72127947 -7.338977 1355.44263431 -6.47705078 1354.1640625 C-3.97592676 1350.44855048 -1.48609402 1346.72558044 1 1343 C1.62181152 1342.06929687 2.24362305 1341.13859375 2.88427734 1340.1796875 C24.4718946 1307.74424491 43.50548829 1273.79539927 61 1239 C61.309375 1238.38467407 61.61875 1237.76934814 61.9375 1237.13537598 C83.64862975 1193.85729195 101.42255124 1148.81710251 117 1103 C117.63301025 1101.14205811 117.63301025 1101.14205811 118.27880859 1099.24658203 C150.36565797 1004.28221555 168.96771697 904.65069144 177.25 804.875 C177.3272229 803.95790253 177.4044458 803.04080505 177.48400879 802.09591675 C178.06665717 795.06865332 178.55585525 788.03731627 179 781 C179.04259823 780.3280875 179.08519646 779.656175 179.12908554 778.96390152 C180.84475222 751.65186122 181.36796944 724.40011281 181.31805801 697.03780365 C181.3123983 693.88077239 181.3095898 690.72374654 181.30697632 687.56671143 C181.26778257 654.95422819 180.65176072 622.51972437 178 590 C177.91278687 588.90278625 177.82557373 587.80557251 177.73571777 586.67510986 C171.35351419 506.45909312 158.6024769 427.05795358 139 349 C138.70122955 347.80458588 138.70122955 347.80458588 138.39642334 346.58502197 C128.89134942 308.58315639 117.43548606 271.1600326 104.72344971 234.11364746 C104.01181381 232.03451549 103.30562569 229.95361247 102.60107422 227.87207031 C77.38002449 153.46863998 44.71682452 79.74019887 5.4921875 11.6328125 C4.91911865 10.63773682 4.91911865 10.63773682 4.33447266 9.62255859 C3.33999069 7.9053869 2.33459155 6.19454987 1.328125 4.484375 C0 2 0 2 0 0 Z " fill="#807F95" transform="translate(3609,925)"/>
<path d="M0 0 C6.26523989 3.34815736 12.19335061 7.01470961 18.0546875 11.0234375 C18.90145554 11.59770477 19.74822357 12.17197205 20.62065125 12.76364136 C22.43334687 13.99315486 24.24500213 15.22420338 26.05569458 16.45666504 C30.87072414 19.73294702 35.69491875 22.99566485 40.51953125 26.2578125 C41.49178146 26.91535522 42.46403168 27.57289795 43.46574402 28.25036621 C52.45220454 34.3203199 61.49194094 40.30662513 70.5625 46.25 C71.27735565 46.71845337 71.9922113 47.18690674 72.72872925 47.66955566 C76.84326299 50.36456034 80.96046946 53.055454 85.07873535 55.74475098 C88.13483081 57.74143626 91.18844522 59.74190594 94.2421875 61.7421875 C105.55685817 69.15159773 116.8862535 76.53825262 128.23046875 83.90234375 C131.42271422 85.97459469 134.61268614 88.050276 137.80078125 90.12890625 C148.14535304 96.87026593 158.52788071 103.5499758 168.93237305 110.19848633 C174.79953731 113.94846967 180.65868318 117.70988765 186.5 121.5 C196.5520823 128.01983567 206.65139494 134.46586497 216.74609375 140.91943359 C221.99852038 144.27786544 227.24917749 147.63906096 232.5 151 C234.57942417 152.33073373 236.65885125 153.66146288 238.73828125 154.9921875 C242.94450777 157.68411987 247.15018045 160.37691472 251.35546875 163.0703125 C263.99007168 171.16151416 276.63690099 179.23308701 289.29833984 187.28222656 C293.86646057 190.18673564 298.43315077 193.09349229 303 196 C304.83332663 197.1666772 306.66665996 198.33334387 308.5 199.5 C336 217 336 217 363.5 234.5 C364.4072583 235.07733887 365.3145166 235.65467773 366.24926758 236.24951172 C368.08506912 237.41776388 369.9208438 238.58605824 371.7565918 239.75439453 C376.30194376 242.64714755 380.84773967 245.5391977 385.39453125 248.4296875 C404.97640543 260.88027338 424.54036888 273.35896866 444 286 C444.87720703 286.56976562 445.75441406 287.13953125 446.65820312 287.7265625 C452.44000038 291.48253307 458.22054508 295.24042628 464 299 C462.74327861 302.77016416 461.70437669 303.00711403 458.27734375 304.86328125 C457.27646729 305.41298584 456.27559082 305.96269043 455.24438477 306.52905273 C454.15311279 307.11759033 453.06184082 307.70612793 451.9375 308.3125 C449.63178953 309.5788684 447.32712644 310.84714539 445.0234375 312.1171875 C444.4346431 312.44071701 443.84584869 312.76424652 443.23921204 313.09757996 C437.45654823 316.28123133 431.75383367 319.59410926 426.0625 322.9375 C419.93252712 326.53510055 413.79907792 330.12398498 407.62890625 333.65234375 C384.05285066 347.13452317 361.10974623 361.21287298 339 377 C337.48583654 378.07574531 335.97152491 379.15128211 334.45703125 380.2265625 C331.29721295 382.4741033 328.14536627 384.73228359 325 387 C327.59453955 395.78605438 331.56423942 403.88351554 335.5 412.125 C336.22885008 413.65902082 336.95736231 415.19320221 337.68554688 416.72753906 C339.13022102 419.76979611 340.57787352 422.81061144 342.02734375 425.85058594 C343.68084593 429.32234858 345.31417194 432.80306955 346.9375 436.2890625 C358.29505015 460.58071262 371.23998965 483.96609533 385.12548828 506.89355469 C386.87095074 509.78613926 388.59339935 512.69096095 390.30859375 515.6015625 C404.07760067 538.80915212 419.42655717 561.25591034 435.47998047 582.94287109 C437.16406129 585.22203347 438.83438658 587.51093337 440.50390625 589.80078125 C447.48259164 599.35313949 454.58896972 608.77885549 462 618 C462.5141748 618.6403418 463.02834961 619.28068359 463.55810547 619.94042969 C469.65078298 627.51372483 475.81215478 635.02248253 482.11938477 642.41821289 C484.94686695 645.73698236 487.70622288 649.10184014 490.4375 652.5 C494.81334245 657.88142204 499.49308815 662.93998569 504.22265625 668.0078125 C506.38077719 670.32240262 508.4917381 672.66895746 510.5625 675.0625 C515.25935123 680.48021089 520.13280948 685.73591853 525 691 C525.5313002 691.57486649 526.0626004 692.14973297 526.61000061 692.74201965 C535.94211558 702.81861829 545.49328885 712.65165858 555.21850586 722.34887695 C557.4639158 724.58885186 559.70382839 726.83422696 561.94335938 729.08007812 C563.39811646 730.53417542 564.85318318 731.98796303 566.30859375 733.44140625 C566.96395615 734.09879288 567.61931854 734.7561795 568.29454041 735.43348694 C572.12816663 739.24798308 576.06814512 742.87761074 580.17860413 746.39268494 C582.03116885 748.02750537 583.77061537 749.73609166 585.5 751.5 C588.44600215 754.49234375 591.52983007 757.25324172 594.7109375 759.9921875 C596.93564472 761.94355185 599.11153265 763.94168456 601.28076172 765.9543457 C606.46474081 770.76237477 611.77450125 775.31850101 617.28515625 779.75390625 C620.10673495 782.0883059 622.80590712 784.51990598 625.5 787 C630.3064072 791.41377112 635.27110083 795.5636031 640.34960938 799.65869141 C642.248388 801.20187037 644.13255739 802.76190797 646.015625 804.32421875 C654.54805893 811.40074452 663.17094026 818.29748554 672 825 C673.5713565 826.21235745 675.14270132 827.42473151 676.71264648 828.63891602 C737.44301752 875.5606112 802.29618905 916.89879848 870 953 C870.88751953 953.4734082 871.77503906 953.94681641 872.68945312 954.43457031 C879.4290349 958.01639299 886.20616 961.52232464 893 965 C893.66171204 965.33922485 894.32342407 965.67844971 895.00518799 966.0279541 C916.7182719 977.15134025 938.60994716 987.66271986 960.98886108 997.3795929 C965.10642068 999.16793912 969.20848102 1000.98541749 973.296875 1002.83984375 C1038.33499844 1032.24662824 1107.05350298 1054.85095612 1176 1073 C1176.99094666 1073.2610553 1177.98189331 1073.5221106 1179.00286865 1073.79107666 C1278.09090282 1099.79079912 1379.01117198 1112.92242042 1489 1118 C1489 1118.66 1489 1119.32 1489 1120 C1390.4546137 1142.28176076 1290.72777537 1157.05301624 707 1069 C706.048974 1068.60554688 706.048974 1068.60554688 705.07873535 1068.203125 C686.82766059 1060.61925263 668.8550921 1052.47025786 651 1044 C650.36455261 1043.69924561 649.72910522 1043.39849121 649.07440186 1043.08862305 C632.68919184 1035.33232266 616.51712065 1027.33408674 600.68652344 1018.48583984 C597.87006323 1016.92813566 595.03617622 1015.40724175 592.1953125 1013.89453125 C578.50010118 1006.59504178 565.12935053 998.8607478 551.89013672 990.76416016 C549.30985982 989.18914065 546.72127641 987.62921173 544.12890625 986.07421875 C531.94288294 978.70776829 520.09971285 970.82889145 508.25 962.9375 C507.42473816 962.38855072 506.59947632 961.83960144 505.74920654 961.27401733 C491.10641568 951.52350381 476.63868614 941.53384706 462.5 931.0625 C461.71794189 930.48459717 460.93588379 929.90669434 460.13012695 929.3112793 C440.57488244 914.81971019 421.38156581 899.85889029 402.84008789 884.08813477 C399.38860141 881.15716339 395.89781737 878.28285249 392.375 875.4375 C387.61479947 871.56420728 383.07195216 867.49240008 378.5546875 863.33984375 C376.37302185 861.34165152 374.16988691 859.37851111 371.9375 857.4375 C351.51172133 839.66334372 331.83741019 821.01986907 312.72119141 801.8515625 C310.34523325 799.47016511 307.96386669 797.09426757 305.58203125 794.71875 C304.04134538 793.17740441 302.50096916 791.63574924 300.9609375 790.09375 C300.26294037 789.3977771 299.56494324 788.7018042 298.84579468 787.98474121 C294.89193127 784.01214592 291.11676233 779.93770839 287.46499634 775.68518066 C285.7322242 773.69197834 283.89959823 771.83409484 282 770 C278.85079119 766.89286078 275.92023033 763.67509696 273.0390625 760.3203125 C270.96443251 757.95952664 268.83504128 755.6604765 266.69018555 753.36376953 C261.66437194 747.98126505 256.88932654 742.49230738 252.27734375 736.74609375 C249.78172365 733.73679541 247.16212481 730.86083194 244.5 728 C240.24466724 723.42072425 236.22677077 718.70713701 232.3046875 713.8359375 C229.7920519 710.7441181 227.2133787 707.71575766 224.625 704.6875 C219.36943215 698.51440983 214.35383309 692.171011 209.37939453 685.77050781 C207.53690478 683.40559884 205.68062598 681.05169168 203.82446289 678.69750977 C190.604134 661.92135223 177.73278004 644.89647254 165.2734375 627.546875 C163.1479481 624.58758828 161.007881 621.64001736 158.8515625 618.703125 C150.60436597 607.44311969 142.84378862 595.89216618 135.15185547 584.24755859 C132.93625106 580.90379074 130.70703793 577.56951039 128.47265625 574.23828125 C119.673121 561.1114911 111.044518 547.89125802 102.60498047 534.52929688 C98.45370635 527.98728289 94.22190543 521.49656468 90 515 C81.68967794 517.55702217 73.81671523 520.99599447 65.875 524.5 C64.81687103 524.96536163 64.81687103 524.96536163 63.73736572 525.44012451 C45.53900208 533.45073264 27.70505931 541.90773412 10.3046875 551.54296875 C1.63453647 556.32803227 -7.13846804 560.92120652 -15.89761353 565.54055786 C-18.01920112 566.65943616 -20.14046577 567.77892498 -22.26171875 568.8984375 C-22.9322377 569.25165573 -23.60275665 569.60487396 -24.29359436 569.96879578 C-29.22584792 572.57287769 -34.11205671 575.2535085 -38.97192383 577.99072266 C-41 579 -41 579 -43 579 C-43.11216634 567.69437763 -42.8164839 556.48667486 -42.1171875 545.20385742 C-42.02119974 543.59404855 -41.92564364 541.98421388 -41.83047676 540.37435627 C-41.57216864 536.02741693 -41.3074873 531.68088766 -41.04144907 527.33441544 C-40.8159029 523.63656673 -40.59405241 519.93849994 -40.37221968 516.2404269 C-39.71550655 505.29301353 -39.04908724 494.34620526 -38.37966156 483.39956284 C-37.99872353 477.1700702 -37.61969303 470.94046225 -37.24078369 464.71084595 C-30.73313726 357.78230393 -23.71330313 250.88857983 -6 53 C-5.92582855 52.22398438 -5.8516571 51.44796875 -5.77523804 50.6484375 C-4.8643152 41.11839058 -3.94166712 31.5895654 -3 22.0625 C-2.89981567 21.04286163 -2.79963135 20.02322327 -2.69641113 18.97268677 C-2.42677578 16.24306986 -2.15213994 13.51402008 -1.875 10.78515625 C-1.79940857 10.01864746 -1.72381714 9.25213867 -1.64593506 8.46240234 C-1.33670389 5.47779348 -0.95279189 2.85837568 0 0 Z " fill="#807F95" transform="translate(1262,1855)"/>
<path d="M0 0 C5.66435982 1.65823731 11.26554299 3.38075347 16.79931641 5.44165039 C17.7116186 5.77994291 17.7116186 5.77994291 18.64235115 6.12506962 C20.62988404 6.86293526 22.61572494 7.60524139 24.6015625 8.34765625 C26.02393026 8.87679754 27.44639774 9.40567083 28.86895752 9.93429565 C32.66710023 11.34662916 36.46375482 12.76292177 40.26009369 14.18009567 C43.44616785 15.36889779 46.6331026 16.55538315 49.82004738 17.74184895 C74.74250269 27.02031635 99.6473479 36.3456204 124.54125977 45.70037842 C137.23470566 50.46994049 149.92939197 55.23619622 162.625 60 C163.76486485 60.4277453 163.76486485 60.4277453 164.92775726 60.86413193 C188.93467144 69.87250028 212.95991933 78.83053731 237 87.75 C238.50223808 88.30738288 240.00447604 88.86476609 241.50671387 89.42214966 C242.24460144 89.69593036 242.98248901 89.96971106 243.74273682 90.25178814 C247.35196126 91.59094813 250.96115791 92.93018301 254.5703125 94.26953125 C255.26111404 94.52588411 255.95191559 94.78223698 256.66365051 95.04635811 C267.74128255 99.15761959 278.81327161 103.28361696 289.875 107.4375 C290.60813416 107.71278534 291.34126831 107.98807068 292.09661865 108.271698 C296.09789347 109.77446844 300.09880653 111.2782001 304.09960938 112.78222656 C317.4397048 117.79684893 330.78193702 122.80577988 344.125 127.8125 C344.89293633 128.10067345 345.66087265 128.38884689 346.45207977 128.68575287 C364.46665696 135.44550355 382.48648395 142.19078048 400.5234375 148.890625 C401.27558596 149.17003307 402.02773441 149.44944115 402.80267525 149.73731613 C410.22782819 152.49523062 417.65403518 155.25027171 425.0827837 157.99848747 C428.65056434 159.3184321 432.2179799 160.63936069 435.78515625 161.9609375 C436.47567015 162.21674213 437.16618404 162.47254677 437.8776226 162.73610306 C447.5444635 166.31969257 457.18433395 169.96761996 466.80859375 173.6640625 C469.06892058 174.52814844 471.32933436 175.39200699 473.58984375 176.25561523 C477.69441064 177.82390986 481.79060161 179.41174964 485.8828125 181.01196289 C487.68067846 181.7001948 489.47883631 182.38766492 491.27734375 183.07421875 C492.06862167 183.39045197 492.8598996 183.70668518 493.67515564 184.03250122 C494.41262527 184.31012299 495.15009491 184.58774475 495.90991211 184.8737793 C496.53594833 185.11734665 497.16198456 185.360914 497.80699158 185.61186218 C503.28839252 186.58200848 508.50592168 184.63888735 513.58569336 182.73779297 C514.20612581 182.50780578 514.82655827 182.27781858 515.4657917 182.04086208 C517.50969791 181.2813027 519.54971246 180.51182232 521.58984375 179.7421875 C523.03846421 179.20155509 524.48731681 178.66154433 525.93638611 178.12211609 C529.80442388 176.6802295 533.66918057 175.2297366 537.53334808 173.77751541 C541.57064198 172.26192069 545.6109186 170.75431892 549.65087891 169.24584961 C556.73370312 166.59993199 563.81409675 163.94759156 570.89300156 161.29120731 C576.59256076 159.15243611 582.29392649 157.01852693 587.99609375 154.88671875 C595.70012146 152.00465726 603.4002015 149.1121501 611.09960938 146.21777344 C624.4397048 141.20315107 637.78193702 136.19422012 651.125 131.1875 C651.89293633 130.89932655 652.66087265 130.61115311 653.45207977 130.31424713 C678.93298245 120.75284874 704.43572703 111.2514405 729.95236206 101.78585815 C749.78333167 94.42936865 769.60201336 87.04169224 789.40234375 79.60302734 C803.36538387 74.35808344 817.33877349 69.14133302 831.31616211 63.93475342 C854.02331655 55.47619166 876.72005397 46.99026743 899.40789032 38.48002625 C901.6783132 37.62844575 903.94879569 36.77702438 906.21929932 35.92565918 C921.51289991 30.19101356 936.80484775 24.45205135 952.09046936 18.69616699 C957.36600399 16.70969185 962.64231408 14.72528024 967.91881847 12.7413826 C972.17831121 11.13963195 976.43668987 9.53496425 980.69425297 7.928092 C982.67427725 7.18137539 984.65485338 6.43614629 986.63569641 5.69160461 C989.04264398 4.78689629 991.4486911 3.87978749 993.85368347 2.96989441 C994.90534195 2.57546646 995.95700043 2.18103851 997.04052734 1.7746582 C997.9558725 1.42973831 998.87121765 1.08481842 999.81430054 0.72944641 C1002 0 1002 0 1004 0 C1004.09376966 27.87875511 1004.16413828 55.75748631 1004.20724869 83.6363678 C1004.22780467 96.58331601 1004.25579094 109.53016579 1004.30175781 122.47705078 C1004.34184003 133.77194287 1004.3674833 145.06676361 1004.37635398 156.36172485 C1004.38153276 162.33289432 1004.39355682 168.30385981 1004.42292023 174.27496338 C1004.45042859 179.91548434 1004.45837481 185.55572074 1004.45243073 191.19630241 C1004.45351535 193.24708551 1004.46125523 195.2978799 1004.4768219 197.3486042 C1004.84097419 247.87570037 983.93665547 298.92324935 949.16015625 335.69921875 C947.31448576 337.66504138 945.5523514 339.66873396 943.79296875 341.7109375 C939.79044242 346.30117655 935.55764744 350.63443809 931.25 354.9375 C930.45577637 355.73091797 929.66155273 356.52433594 928.84326172 357.34179688 C923.15278132 362.97318248 917.31161941 368.0748039 911 373 C909.14309253 374.58011808 907.28908524 376.16364866 905.4375 377.75 C891.83464085 389.07402965 877.12067704 398.83671302 862 408 C861.25733887 408.45052734 860.51467773 408.90105469 859.74951172 409.36523438 C828.14500815 428.39321499 794.70676156 443.59246291 760 456 C759.36253845 456.22816406 758.7250769 456.45632813 758.06829834 456.69140625 C735.38959956 464.77942981 712.38767702 471.30046588 689 477 C688.31031128 477.16844421 687.62062256 477.33688843 686.91003418 477.51043701 C642.06273587 488.40876301 596.03604019 494.33345537 550 497 C548.63875 497.08677002 548.63875 497.08677002 547.25 497.17529297 C460.86776713 502.59025065 371.28124589 493.75016572 259 461 C257.90381348 460.64325195 256.80762695 460.28650391 255.67822266 459.91894531 C193.11752448 439.38784094 132.24275272 408.72347226 83.32421875 364.10546875 C81.28726075 362.26022445 79.21729153 360.4691833 77.125 358.6875 C68.75938257 351.36969728 61.10035636 343.46395964 54.19921875 334.75390625 C51.93232159 331.91525173 49.56422811 329.18452915 47.1875 326.4375 C19.19176072 292.79920862 -0.28108433 247.86272355 -0.12025452 203.71115112 C-0.12110894 202.83281022 -0.12196337 201.95446932 -0.12284368 201.04951203 C-0.12447712 198.13699048 -0.11901245 195.22452787 -0.11352539 192.31201172 C-0.11324303 190.21204123 -0.11340221 188.11207065 -0.1139679 186.01210022 C-0.11425396 180.33311273 -0.10838801 174.6541465 -0.10139394 168.97516394 C-0.0951287 163.03211927 -0.09455409 157.08907407 -0.09336853 151.14602661 C-0.09026455 139.90178534 -0.08206376 128.65755383 -0.07201904 117.41331685 C-0.0608289 104.60800945 -0.05534015 91.80270158 -0.05032361 78.99739051 C-0.03988036 52.6649216 -0.02229901 26.33246135 0 0 Z " fill="#142349" transform="translate(2113,1702)"/>
</svg>